<svg xmlns="http://www.w3.org/2000/svg" version="1.1" xmlns:xlink="http://www.w3.org/1999/xlink" width="188" height="183"><svg xmlns="http://www.w3.org/2000/svg" version="1.1" xmlns:xlink="http://www.w3.org/1999/xlink" width="188" height="183"><svg width="188" height="183" viewBox="0 0 188 183" fill="none" xmlns="http://www.w3.org/2000/svg">
<g filter="url(#filter0_d_1_6)">
<rect x="10" y="85" width="168" height="87" rx="18" fill="#FF9D2C"></rect>
</g>
<g filter="url(#filter1_d_1_6)">
<path d="M16.1172 16.9199H31.8516C36.1068 16.9199 39.3724 17.2539 41.6484 17.9219C43.9492 18.5898 45.6686 19.5547 46.8066 20.8164C47.9694 22.0781 48.7487 23.612 49.1445 25.418C49.5651 27.1992 49.7754 29.9701 49.7754 33.7305V38.9629C49.7754 42.7975 49.3796 45.5931 48.5879 47.3496C47.7962 49.1061 46.3366 50.4544 44.209 51.3945C42.1061 52.3346 39.3477 52.8047 35.9336 52.8047H31.7402V77H16.1172V16.9199ZM31.7402 27.1992V42.4883C32.1855 42.513 32.569 42.5254 32.8906 42.5254C34.3255 42.5254 35.3151 42.179 35.8594 41.4863C36.4284 40.7689 36.7129 39.2969 36.7129 37.0703V32.1348C36.7129 30.0814 36.3913 28.7454 35.748 28.127C35.1048 27.5085 33.7689 27.1992 31.7402 27.1992ZM89.9648 52.0996C89.9648 58.1361 89.8164 62.416 89.5195 64.9395C89.2474 67.4382 88.3568 69.7266 86.8477 71.8047C85.3633 73.8828 83.347 75.4785 80.7988 76.5918C78.2507 77.7051 75.2819 78.2617 71.8926 78.2617C68.6764 78.2617 65.7819 77.7422 63.209 76.7031C60.6608 75.6393 58.6074 74.056 57.0488 71.9531C55.4902 69.8503 54.5625 67.5618 54.2656 65.0879C53.9688 62.6139 53.8203 58.2845 53.8203 52.0996V41.8203C53.8203 35.7839 53.9564 31.5163 54.2285 29.0176C54.5254 26.4941 55.416 24.1934 56.9004 22.1152C58.4095 20.0371 60.4382 18.4414 62.9863 17.3281C65.5345 16.2148 68.5033 15.6582 71.8926 15.6582C75.1087 15.6582 77.9909 16.1901 80.5391 17.2539C83.112 18.293 85.1777 19.8639 86.7363 21.9668C88.2949 24.0697 89.2227 26.3581 89.5195 28.832C89.8164 31.306 89.9648 35.6354 89.9648 41.8203V52.0996ZM74.3418 32.3574C74.3418 29.5618 74.181 27.7806 73.8594 27.0137C73.5625 26.222 72.9316 25.8262 71.9668 25.8262C71.1504 25.8262 70.5195 26.1478 70.0742 26.791C69.6536 27.4095 69.4434 29.265 69.4434 32.3574V60.4121C69.4434 63.9004 69.5794 66.0527 69.8516 66.8691C70.1484 67.6855 70.8164 68.0938 71.8555 68.0938C72.9193 68.0938 73.5996 67.6237 73.8965 66.6836C74.1934 65.7435 74.3418 63.5046 74.3418 59.9668V32.3574ZM95.8281 16.9199H106.887C114.259 16.9199 119.244 17.2044 121.842 17.7734C124.464 18.3424 126.592 19.8021 128.225 22.1523C129.882 24.4779 130.711 28.2012 130.711 33.3223C130.711 37.998 130.13 41.14 128.967 42.748C127.804 44.3561 125.516 45.321 122.102 45.6426C125.194 46.4095 127.272 47.4362 128.336 48.7227C129.4 50.0091 130.055 51.1966 130.303 52.2852C130.575 53.349 130.711 56.3053 130.711 61.1543V77H116.201V57.0352C116.201 53.819 115.941 51.8275 115.422 51.0605C114.927 50.2936 113.604 49.9102 111.451 49.9102V77H95.8281V16.9199ZM111.451 27.1992V40.5586C113.208 40.5586 114.432 40.3236 115.125 39.8535C115.842 39.3587 116.201 37.7878 116.201 35.1406V31.8379C116.201 29.9329 115.855 28.6836 115.162 28.0898C114.494 27.4961 113.257 27.1992 111.451 27.1992ZM171.68 16.9199V77H157.986L149.859 49.6875V77H136.797V16.9199H149.859L158.617 43.9727V16.9199H171.68Z" fill="black"></path>
</g>
<g filter="url(#filter2_d_1_6)">
<path d="M53.3613 101.197V151H40.4106V130.082H36.5347V151H23.584V101.197H36.5347V119.008H40.4106V101.197H53.3613ZM88.0298 101.197V134.481C88.0298 138.254 87.9067 140.91 87.6606 142.448C87.4146 143.966 86.6865 145.535 85.4766 147.155C84.2666 148.754 82.667 149.975 80.6777 150.815C78.709 151.636 76.3813 152.046 73.6948 152.046C70.7212 152.046 68.0962 151.554 65.8198 150.569C63.5435 149.585 61.8413 148.303 60.7134 146.724C59.5854 145.145 58.9189 143.484 58.7139 141.741C58.5088 139.977 58.4062 136.286 58.4062 130.667V101.197H71.3569V138.542C71.3569 140.715 71.4697 142.11 71.6953 142.725C71.9414 143.32 72.4233 143.617 73.1411 143.617C73.9614 143.617 74.4844 143.289 74.71 142.633C74.9561 141.956 75.0791 140.377 75.0791 137.896V101.197H88.0298ZM93.0439 101.197H105.964C110.045 101.197 113.131 101.515 115.223 102.15C117.335 102.786 119.038 104.078 120.33 106.026C121.622 107.954 122.268 111.071 122.268 115.378C122.268 118.29 121.806 120.32 120.883 121.469C119.981 122.617 118.187 123.499 115.5 124.114C118.494 124.791 120.524 125.919 121.591 127.498C122.657 129.057 123.19 131.456 123.19 134.696V139.311C123.19 142.674 122.801 145.166 122.021 146.786C121.263 148.406 120.042 149.513 118.361 150.108C116.679 150.703 113.234 151 108.025 151H93.0439V101.197ZM105.995 109.718V120.792C106.548 120.771 106.979 120.761 107.287 120.761C108.558 120.761 109.368 120.454 109.717 119.838C110.065 119.203 110.24 117.408 110.24 114.455C110.24 112.896 110.096 111.81 109.809 111.194C109.522 110.559 109.143 110.159 108.671 109.995C108.22 109.831 107.328 109.738 105.995 109.718ZM105.995 128.544V142.479C107.82 142.417 108.979 142.13 109.471 141.618C109.983 141.105 110.24 139.844 110.24 137.834V133.189C110.24 131.056 110.014 129.764 109.563 129.313C109.112 128.862 107.922 128.605 105.995 128.544ZM157.797 101.197V151H145.37V124.299C145.37 120.443 145.277 118.126 145.093 117.347C144.908 116.567 144.396 115.983 143.555 115.593C142.734 115.183 140.889 114.978 138.018 114.978H136.787V109.164C142.796 107.872 147.359 105.216 150.476 101.197H157.797Z" fill="black"></path>
</g>
<defs>
<filter id="filter0_d_1_6" x="0" y="76" width="188" height="107" filterUnits="userSpaceOnUse" color-interpolation-filters="sRGB">
<feFlood flood-opacity="0" result="BackgroundImageFix"></feFlood>
<feColorMatrix in="SourceAlpha" type="matrix" values="0 0 0 0 0 0 0 0 0 0 0 0 0 0 0 0 0 0 127 0" result="hardAlpha"></feColorMatrix>
<feOffset dy="1"></feOffset>
<feGaussianBlur stdDeviation="5"></feGaussianBlur>
<feComposite in2="hardAlpha" operator="out"></feComposite>
<feColorMatrix type="matrix" values="0 0 0 0 0 0 0 0 0 0 0 0 0 0 0 0 0 0 0.25 0"></feColorMatrix>
<feBlend mode="normal" in2="BackgroundImageFix" result="effect1_dropShadow_1_6"></feBlend>
<feBlend mode="normal" in="SourceGraphic" in2="effect1_dropShadow_1_6" result="shape"></feBlend>
</filter>
<filter id="filter1_d_1_6" x="6.11719" y="6.6582" width="175.562" height="82.6035" filterUnits="userSpaceOnUse" color-interpolation-filters="sRGB">
<feFlood flood-opacity="0" result="BackgroundImageFix"></feFlood>
<feColorMatrix in="SourceAlpha" type="matrix" values="0 0 0 0 0 0 0 0 0 0 0 0 0 0 0 0 0 0 127 0" result="hardAlpha"></feColorMatrix>
<feOffset dy="1"></feOffset>
<feGaussianBlur stdDeviation="5"></feGaussianBlur>
<feComposite in2="hardAlpha" operator="out"></feComposite>
<feColorMatrix type="matrix" values="0 0 0 0 0 0 0 0 0 0 0 0 0 0 0 0 0 0 0.25 0"></feColorMatrix>
<feBlend mode="normal" in2="BackgroundImageFix" result="effect1_dropShadow_1_6"></feBlend>
<feBlend mode="normal" in="SourceGraphic" in2="effect1_dropShadow_1_6" result="shape"></feBlend>
</filter>
<filter id="filter2_d_1_6" x="13.584" y="92.1968" width="154.213" height="70.8491" filterUnits="userSpaceOnUse" color-interpolation-filters="sRGB">
<feFlood flood-opacity="0" result="BackgroundImageFix"></feFlood>
<feColorMatrix in="SourceAlpha" type="matrix" values="0 0 0 0 0 0 0 0 0 0 0 0 0 0 0 0 0 0 127 0" result="hardAlpha"></feColorMatrix>
<feOffset dy="1"></feOffset>
<feGaussianBlur stdDeviation="5"></feGaussianBlur>
<feComposite in2="hardAlpha" operator="out"></feComposite>
<feColorMatrix type="matrix" values="0 0 0 0 0 0 0 0 0 0 0 0 0 0 0 0 0 0 0.25 0"></feColorMatrix>
<feBlend mode="normal" in2="BackgroundImageFix" result="effect1_dropShadow_1_6"></feBlend>
<feBlend mode="normal" in="SourceGraphic" in2="effect1_dropShadow_1_6" result="shape"></feBlend>
</filter>
</defs>
</svg></svg><style>@media (prefers-color-scheme: light) { :root { filter: none; } }
@media (prefers-color-scheme: dark) { :root { filter: none; } }
</style></svg>